<mxfile host="app.diagrams.net" modified="2023-07-20T06:34:27.647Z" agent="Mozilla/5.0 (Macintosh; Intel Mac OS X 10.15; rv:109.0) Gecko/20100101 Firefox/115.0" version="21.6.3" etag="iZbLCBk8brxrdQmoFR9W" type="github">
  <diagram name="Page-1" id="hdL70bNsDjffWrH8fwOe">
    <mxGraphModel>
      <root>
        <mxCell id="0" />
        <mxCell id="1" parent="0" />
      </root>
    </mxGraphModel>
  </diagram>
</mxfile>
